<svg xmlns="http://www.w3.org/2000/svg" viewBox="0 0 48 48" width="48" height="48">
  <rect fill="#7C4DFF" x="4" y="4" width="40" height="40" rx="8"/>
  <!-- Input layer -->
  <circle fill="#fff" cx="12" cy="16" r="3"/>
  <circle fill="#fff" cx="12" cy="24" r="3"/>
  <circle fill="#fff" cx="12" cy="32" r="3"/>
  <!-- Hidden layer -->
  <circle fill="#B388FF" cx="24" cy="14" r="3"/>
  <circle fill="#B388FF" cx="24" cy="24" r="3"/>
  <circle fill="#B388FF" cx="24" cy="34" r="3"/>
  <!-- Output layer -->
  <circle fill="#fff" cx="36" cy="20" r="3"/>
  <circle fill="#fff" cx="36" cy="28" r="3"/>
  <!-- Connections -->
  <line x1="15" y1="16" x2="21" y2="14" stroke="#D1C4E9" stroke-width="0.8"/>
  <line x1="15" y1="16" x2="21" y2="24" stroke="#D1C4E9" stroke-width="0.8"/>
  <line x1="15" y1="16" x2="21" y2="34" stroke="#D1C4E9" stroke-width="0.8"/>
  <line x1="15" y1="24" x2="21" y2="14" stroke="#D1C4E9" stroke-width="0.8"/>
  <line x1="15" y1="24" x2="21" y2="24" stroke="#D1C4E9" stroke-width="0.8"/>
  <line x1="15" y1="24" x2="21" y2="34" stroke="#D1C4E9" stroke-width="0.8"/>
  <line x1="15" y1="32" x2="21" y2="14" stroke="#D1C4E9" stroke-width="0.8"/>
  <line x1="15" y1="32" x2="21" y2="24" stroke="#D1C4E9" stroke-width="0.8"/>
  <line x1="15" y1="32" x2="21" y2="34" stroke="#D1C4E9" stroke-width="0.8"/>
  <line x1="27" y1="14" x2="33" y2="20" stroke="#D1C4E9" stroke-width="0.8"/>
  <line x1="27" y1="14" x2="33" y2="28" stroke="#D1C4E9" stroke-width="0.8"/>
  <line x1="27" y1="24" x2="33" y2="20" stroke="#D1C4E9" stroke-width="0.8"/>
  <line x1="27" y1="24" x2="33" y2="28" stroke="#D1C4E9" stroke-width="0.8"/>
  <line x1="27" y1="34" x2="33" y2="20" stroke="#D1C4E9" stroke-width="0.8"/>
  <line x1="27" y1="34" x2="33" y2="28" stroke="#D1C4E9" stroke-width="0.8"/>
</svg>
